<svg width="912" height="228" viewBox="0 0 912 228" fill="none" xmlns="http://www.w3.org/2000/svg">
<path d="M108.3 66.9466C133.118 66.9466 153.193 88.5519 152.238 113.58C151.339 137.385 131.033 156.81 107.211 156.81H75.7771C73.6739 156.81 71.953 155.09 71.953 152.986V70.7699C71.953 68.6667 73.6739 66.9458 75.7771 66.9458H108.282M108.301 16.2769H31.8208C25.4919 16.2769 20.3486 21.4201 20.3486 27.749V196.011C20.3486 202.339 25.4919 207.483 31.8208 207.483H108.301C161.093 207.483 203.901 164.673 203.901 111.881C203.901 59.0899 161.091 16.2769 108.301 16.2769Z" fill="#1E84FF"/>
<path d="M888.367 94.288C888.367 48.0564 854.18 16.2776 813.456 16.2776C790.473 16.2776 777.987 24.8051 765.617 35.4933C764.201 36.7171 762.098 36.7171 760.664 35.4933C748.14 24.8051 734.7 16.2776 713.628 16.2776C671.163 16.2776 637.893 51.0954 637.893 94.288V192.183C637.893 198.512 643.037 203.654 649.366 203.654H678.047C684.376 203.654 689.518 198.512 689.518 192.183V90.0624C689.518 77.7299 699.231 66.0089 713.418 66.0089C726.421 66.0089 737.319 76.4486 737.319 90.0624V192.183C737.319 198.512 742.462 203.654 748.791 203.654H777.471C783.799 203.654 788.943 198.512 788.943 192.183V90.0624C788.943 77.6534 798.656 65.991 812.843 65.991C825.481 65.991 836.744 75.5893 836.744 90.0624V192.183C836.744 198.512 841.886 203.654 848.215 203.654H876.896C883.225 203.654 888.367 198.512 888.367 192.183V94.288Z" fill="#F95F65"/>
<path d="M410.391 119.431C410.391 41.6301 350.888 15.4752 314.789 16.2973C260.01 17.5591 221.139 58.5914 219.266 108.15C217.2 162.643 260.756 207.479 314.789 207.479C331.502 207.479 347.218 203.195 360.889 195.644C363.222 194.363 366.051 194.4 368.364 195.72L393.202 210.041C400.849 214.458 410.409 208.931 410.409 200.098V119.392L410.391 119.431ZM270.814 111.878C270.814 86.6592 287.601 66.9454 314.789 66.9454C341.978 66.9454 358.767 86.0455 358.767 111.878C358.767 136.351 342.38 156.811 314.789 156.811C287.199 156.811 270.814 136.487 270.814 111.878Z" fill="#18BB68"/>
<path d="M601.62 23.9265H572.941C566.612 23.9265 561.468 29.0697 561.468 35.3986V123.332C561.468 144.421 544.318 161.591 523.209 161.591C502.101 161.591 484.949 144.441 484.949 123.332V35.3986C484.949 29.0697 479.807 23.9265 473.478 23.9265H444.797C438.468 23.9265 433.325 29.0697 433.325 35.3986V121.419C433.325 170.98 473.649 211.304 523.209 211.304C572.768 211.304 613.093 170.98 613.093 121.419V35.3986C613.093 29.0697 607.949 23.9265 601.62 23.9265Z" fill="#FDA313"/>
</svg>
