<svg width="912" height="286" viewBox="0 0 912 286" fill="none" xmlns="http://www.w3.org/2000/svg">
<g clip-path="url(#clip0_38_959)">
<path d="M114.025 101.914V132.423H187.652C185.697 149.3 179.833 162.283 170.711 170.722C160.286 181.108 143.345 192.792 114.025 192.792C69.0664 192.792 33.8816 156.441 33.8816 111.651C33.8816 66.8605 68.4148 30.5092 114.025 30.5092C138.133 30.5092 156.377 40.2461 169.408 52.5796L190.91 31.1583C172.666 13.6318 147.906 0 114.025 0C52.1256 0 0 49.9831 0 111.651C0 173.318 52.1256 223.301 114.025 223.301C147.255 223.301 172.666 212.266 192.213 192.143C212.412 172.02 218.927 143.458 218.927 120.738C218.927 113.598 218.276 107.107 217.624 101.914H114.025Z" fill="#4285F4"/>
<path d="M310.147 76.5974C270.401 76.5974 237.171 107.107 237.171 148.651C237.171 190.195 269.75 220.705 310.147 220.705C350.544 220.705 383.123 190.845 383.123 149.3C383.123 107.107 350.544 76.5974 310.147 76.5974ZM310.147 192.792C287.994 192.792 269.098 174.616 269.098 149.3C269.098 123.335 287.994 105.808 310.147 105.808C332.301 105.808 351.196 123.335 351.196 149.3C351.196 174.616 332.301 192.792 310.147 192.792Z" fill="#EA4335"/>
<path d="M666.556 92.8257H665.253C658.085 84.387 644.402 76.5974 626.81 76.5974C590.322 76.5974 559.047 107.756 559.047 148.651C559.047 188.897 590.322 220.705 626.81 220.705C644.402 220.705 658.085 212.915 665.253 204.476H666.556V214.862C666.556 242.126 651.57 257.056 628.113 257.056C608.566 257.056 596.838 243.424 591.625 231.091L564.259 242.775C572.078 261.6 593.58 285.618 628.765 285.618C665.904 285.618 697.831 263.547 697.831 210.318V80.4922H667.859V92.8257H666.556ZM630.068 192.792C607.915 192.792 591.625 173.967 591.625 149.3C591.625 123.984 608.566 105.808 630.068 105.808C651.57 105.808 668.511 124.633 668.511 149.949C669.162 174.616 652.221 192.792 630.068 192.792Z" fill="#4285F4"/>
<path d="M472.388 76.5974C432.642 76.5974 399.412 107.107 399.412 148.651C399.412 190.195 431.991 220.705 472.388 220.705C512.785 220.705 545.364 190.845 545.364 149.3C545.364 107.107 512.785 76.5974 472.388 76.5974ZM472.388 192.792C450.235 192.792 431.339 174.616 431.339 149.3C431.339 123.335 450.235 105.808 472.388 105.808C494.541 105.808 513.437 123.335 513.437 149.3C513.437 174.616 494.541 192.792 472.388 192.792Z" fill="#FBBC05"/>
<path d="M721.939 3.24561H753.215V221.354H721.939V3.24561Z" fill="#34A853"/>
<path d="M849.647 192.792C833.358 192.792 822.281 185.651 814.462 170.721L911.546 131.124L908.288 122.686C902.424 106.457 883.529 76.5974 846.389 76.5974C809.25 76.5974 777.974 105.808 777.974 148.651C777.974 188.897 808.598 220.705 849.647 220.705C882.877 220.705 901.773 200.581 910.243 188.897L885.483 172.669C877.013 185.002 865.936 192.792 849.647 192.792ZM847.692 103.861C860.724 103.861 871.8 110.352 875.058 119.44L809.901 146.704C809.25 116.844 831.403 103.861 847.692 103.861Z" fill="#EA4335"/>
</g>
<defs>
<clipPath id="clip0_38_959">
<rect width="911.546" height="285.618" fill="white"/>
</clipPath>
</defs>
</svg>
