<svg width="912" height="175" viewBox="0 0 912 175" fill="none" xmlns="http://www.w3.org/2000/svg">
<g clip-path="url(#clip0_38_952)">
<path d="M262.402 0L193.8 174.961H252.112L260.397 151.804H326.149L334.434 174.961H392.745L324.143 0H262.402ZM273.718 109.779L293.273 55.1247L312.828 109.779H273.718Z" fill="#03CF5D"/>
<path d="M635.424 108.493H715.174V66.468H635.424V42.8826H716.031V0H579.685V174.961H717.746V132.078H635.424V108.493Z" fill="#03CF5D"/>
<path d="M462.204 115.043L421.043 0H362.732L431.334 174.961H493.075L561.677 0H503.366L462.204 115.043Z" fill="#03CF5D"/>
<path d="M119.195 93.6411L54.0238 0H0V174.961H56.5964V81.3199L121.768 174.961H175.792V0H119.195V93.6411Z" fill="#03CF5D"/>
<path d="M867.319 114.939L872.624 112.719C892.955 104.208 903.295 85.7922 903.295 62.4208C903.295 40.3196 895.235 23.9695 879.34 13.8242C864.563 4.39257 845.4 0 819.033 0H745.187V174.961H800.068V126.075H819.791L853.235 174.961H911.546L867.319 114.939ZM829.224 81.477H799.211V44.5979H829.224C839.406 44.5979 847.661 52.8536 847.661 63.0373C847.661 73.2213 839.406 81.477 829.224 81.477Z" fill="#03CF5D"/>
</g>
<defs>
<clipPath id="clip0_38_952">
<rect width="911.546" height="174.961" fill="white"/>
</clipPath>
</defs>
</svg>
