<svg width="900" height="276" viewBox="0 0 900 276" fill="none" xmlns="http://www.w3.org/2000/svg">
<g clip-path="url(#clip0_38_973)">
<path d="M236.166 249.013C240.449 249.013 244.731 248.4 249.626 247.173C254.521 245.947 258.804 244.72 263.698 242.88C268.593 241.04 272.876 238.587 276.547 236.133C280.829 233.68 284.5 230.613 287.559 227.547V184H255.133C238.613 184 226.377 187.067 219.035 192.587C211.693 198.107 207.41 207.307 207.41 219.573C207.41 239.2 216.587 249.013 236.166 249.013ZM177.43 220.8C177.43 201.787 183.549 187.68 196.397 177.253C209.245 167.44 227.6 162.533 251.462 162.533H287.559V150.267C287.559 121.44 274.711 106.72 249.626 106.72C241.672 106.72 233.107 107.947 223.929 110.4C214.752 112.853 206.798 115.307 199.456 118.987L189.667 96.9067C198.844 91.3867 209.245 87.7067 219.647 84.64C230.659 81.5733 241.06 80.3467 251.462 80.3467C295.513 80.3467 317.539 103.653 317.539 150.88V270.48H294.29L290.619 250.24C281.441 257.6 271.04 263.733 260.639 267.413C250.238 271.707 239.837 273.547 230.659 273.547C214.14 273.547 201.292 268.64 191.502 259.44C181.713 250.853 177.43 237.36 177.43 220.8Z" fill="#333333"/>
<mask id="mask0_38_973" style="mask-type:luminance" maskUnits="userSpaceOnUse" x="373" y="0" width="150" height="277">
<path fill-rule="evenodd" clip-rule="evenodd" d="M373.307 0.0737305H522.593V276.074H373.307V0.0737305Z" fill="white"/>
</mask>
<g mask="url(#mask0_38_973)">
<path d="M488.331 79.1937L512.804 96.9804L452.233 173.034L521.982 257.06L497.508 276.074L416.135 174.874L488.331 79.1937ZM404.511 271.167H373.307V6.8204L404.511 0.0737305V271.167Z" fill="#333333"/>
</g>
<path d="M609.381 249.013C613.664 249.013 617.947 248.4 622.842 247.173C627.736 245.947 632.019 244.72 636.914 242.88C641.808 241.04 646.091 238.587 649.762 236.133C654.045 233.68 657.716 230.613 660.775 227.547V184H628.348C611.829 184 599.592 187.067 592.25 192.587C584.908 198.107 580.625 207.307 580.625 219.573C580.625 239.2 590.415 249.013 609.381 249.013ZM550.646 220.8C550.646 201.787 556.764 187.68 569.612 177.253C582.461 167.44 600.816 162.533 624.677 162.533H660.775V150.267C660.775 121.44 647.927 106.72 622.842 106.72C614.888 106.72 606.322 107.947 597.145 110.4C587.967 112.853 580.014 115.307 572.672 118.987L562.882 96.9067C572.06 91.3867 582.461 87.7067 592.862 84.64C603.875 81.5733 614.276 80.3467 624.677 80.3467C668.729 80.3467 690.755 103.653 690.755 150.88V270.48H667.505L663.834 250.24C654.657 257.6 644.867 263.733 633.855 267.413C623.453 271.707 613.052 273.547 603.875 273.547C587.356 273.547 574.507 268.64 564.718 259.44C554.929 250.853 550.646 237.36 550.646 220.8Z" fill="#333333"/>
<mask id="mask1_38_973" style="mask-type:luminance" maskUnits="userSpaceOnUse" x="733" y="80" width="168" height="196">
<path fill-rule="evenodd" clip-rule="evenodd" d="M733.956 80.7881H900.373V275.215H733.956V80.7881Z" fill="white"/>
</mask>
<g mask="url(#mask1_38_973)">
<path d="M817.164 106.548C800.645 106.548 788.409 112.681 779.231 124.948C770.666 137.215 766.383 155.001 766.383 178.921C766.383 202.228 770.666 220.015 779.231 232.281C787.797 244.548 800.645 250.068 817.164 250.068C833.684 250.068 846.532 243.935 855.098 232.281C863.664 220.015 867.946 202.841 867.946 178.921C867.946 155.001 863.664 137.215 855.098 124.948C846.532 112.681 833.684 106.548 817.164 106.548ZM817.164 80.7881C842.861 80.7881 863.663 89.3748 878.347 105.935C893.031 123.108 900.373 147.028 900.373 178.308C900.373 209.588 893.031 232.895 878.347 250.068C863.663 266.628 843.473 275.215 817.164 275.215C791.468 275.215 770.666 266.628 755.982 250.068C741.298 233.508 733.956 209.588 733.956 178.308C733.956 147.028 741.298 122.495 756.593 105.935C770.666 89.3748 791.468 80.7881 817.164 80.7881Z" fill="#333333"/>
</g>
<path d="M31.2033 0L0 6.74667V271.093H31.2033V0ZM42.828 174.8L125.425 276L149.898 256.987L79.5377 172.96L140.109 96.9067L115.636 79.12L42.828 174.8Z" fill="#333333"/>
</g>
<defs>
<clipPath id="clip0_38_973">
<rect width="900" height="276" fill="white"/>
</clipPath>
</defs>
</svg>
